<svg width="24" height="24" fill="none" xmlns="http://www.w3.org/2000/svg"><g clip-path="url(#clip0_1728_2110)"><path d="M24 12.196C24 5.616 18.627.283 12 .283S0 5.616 0 12.196c0 5.946 4.388 10.874 10.125 11.768v-8.325H7.078v-3.443h3.047V9.57c0-2.986 1.791-4.635 4.533-4.635 1.313 0 2.686.233 2.686.233V8.1H15.83c-1.491 0-1.956.918-1.956 1.86v2.235h3.328l-.532 3.443h-2.796v8.325C19.612 23.07 24 18.142 24 12.196z" fill="#fff"/></g><defs><clipPath id="clip0_1728_2110"><path fill="#fff" transform="translate(0 .283)" d="M0 0h24v23.681H0z"/></clipPath></defs></svg>