<svg width="24" height="25" fill="none" xmlns="http://www.w3.org/2000/svg"><g clip-path="url(#clip0_0_3562)"><path d="M24 12.482C24 5.816 18.627.41 12 .41S0 5.815 0 12.482C0 18.51 4.388 23.504 10.125 24.41v-8.436H7.078v-3.49h3.047v-2.66c0-3.026 1.791-4.698 4.533-4.698 1.313 0 2.686.236 2.686.236v2.971H15.83c-1.491 0-1.956.931-1.956 1.886v2.264h3.328l-.532 3.49h-2.796v8.437C19.612 23.503 24 18.51 24 12.483z" fill="#B3B3BA"/></g><defs><clipPath id="clip0_0_3562"><path fill="#fff" transform="translate(0 .41)" d="M0 0h24v24H0z"/></clipPath></defs></svg>