<svg width="38" height="39" fill="none" xmlns="http://www.w3.org/2000/svg"><g clip-path="url(#clip0_0_9525)"><path d="M38 19.868C38 9.311 29.493.752 19 .752S0 9.311 0 19.868c0 9.542 6.948 17.45 16.031 18.884V25.394h-4.824v-5.526h4.824v-4.211c0-4.791 2.837-7.438 7.177-7.438 2.079 0 4.253.374 4.253.374v4.704h-2.396c-2.36 0-3.096 1.473-3.096 2.985v3.586h5.27l-.843 5.526h-4.427v13.358C31.052 37.318 38 29.409 38 19.868z" fill="#F0145A"/></g><defs><clipPath id="clip0_0_9525"><path fill="#fff" transform="translate(0 .752)" d="M0 0h38v38H0z"/></clipPath></defs></svg>