<svg width="79" height="32" fill="none" xmlns="http://www.w3.org/2000/svg"><path d="M5.676 29.485c0-.556-.191-1.024-.567-1.41a1.836 1.836 0 00-1.367-.578c-.485 0-.905.152-1.259.463a1.913 1.913 0 00-.648 1.116h-.518v-1.498H.5v3.814h.817v-1.553h.518c.081.463.3.856.648 1.166.349.31.768.469 1.259.469.533 0 .991-.191 1.367-.578a1.94 1.94 0 00.567-1.41zm-.818 0c0 .36-.109.66-.326.894a1.043 1.043 0 01-1.575 0c-.223-.235-.332-.534-.332-.894s.109-.66.332-.899c.218-.234.48-.354.785-.354.305 0 .566.12.79.354.217.24.326.54.326.9zm2.122-1.906v3.813h.818V30.14h.79c.392 0 .719-.125.975-.37s.387-.55.387-.91c0-.365-.131-.665-.387-.915-.262-.245-.583-.365-.975-.365H6.98zm1.58.735c.164 0 .3.055.409.158a.514.514 0 01.163.387.514.514 0 01-.163.387.572.572 0 01-.409.158h-.762v-1.09h.762zm6.07 3.078V27.58h-.708l-1.88 2.424V27.58h-.816v3.813h.708l1.88-2.424v2.424h.817zm1.032-.735v1.525h.817v-.79h2.288v.79h.818v-1.525h-.463v-3.078h-2.643v1.17c0 .257-.021.497-.065.72a3.645 3.645 0 01-.142.545c-.054.13-.114.25-.185.365-.07.109-.114.18-.142.212-.032.028-.049.055-.065.066h-.218zm1.635-1.907v-.436h1.007v2.343h-1.607l.066-.066a1.41 1.41 0 00.147-.218c.06-.103.114-.223.174-.36.06-.135.109-.32.147-.544a3.72 3.72 0 00.066-.72zm6.859 2.642V27.58h-.708l-1.88 2.424V27.58h-.817v3.813h.708l1.88-2.424v2.424h.817zm2.285-3.813h-.817v1.17c0 .459.12.813.36 1.063.245.256.577.382 1.002.382.365 0 .665-.071.899-.218v1.416h.817V27.58h-.817v1.607l-.093.07a1.185 1.185 0 01-.67.202c-.218 0-.387-.06-.506-.18-.115-.125-.175-.3-.175-.528V27.58zm7.051 0h-.817v1.525h-1.634V27.58h-.817v3.813h.817V29.84h1.634v1.552h.817V27.58zm3.485 2.206h-.926l.463-1.253.463 1.253zm.273.708l.327.9h.871l-1.498-3.814h-.872l-1.498 3.813h.872l.327-.899h1.47zm4.761-2.914h-.817v3.813h.817v-1.09l.49-.544 1.118 1.634h.953l-1.525-2.233 1.416-1.58h-.953l-1.498 1.661v-1.66zm4.22 1.906c0-.349.12-.648.36-.888.234-.245.523-.365.866-.365.343 0 .632.12.866.365.24.24.36.54.36.888 0 .354-.12.648-.36.888a1.148 1.148 0 01-.866.365c-.343 0-.632-.12-.866-.365-.24-.24-.36-.534-.36-.888zm-.844 0a1.9 1.9 0 00.599 1.406c.398.387.888.583 1.471.583.583 0 1.073-.197 1.47-.583a1.9 1.9 0 00.6-1.406 1.89 1.89 0 00-.6-1.405c-.397-.387-.887-.583-1.47-.583s-1.073.196-1.471.582a1.89 1.89 0 00-.6 1.406zm7.487-.245l-1.308-1.661h-.735v3.813h.817V28.86l1.226 1.553 1.226-1.564v2.544h.817V27.58h-.724l-1.319 1.661zm6.806-1.661h-3.242v3.813h.818v-3.078h1.607v3.078h.817V27.58zm3.485 2.206h-.926l.463-1.253.463 1.253zm.272.708l.327.9h.872l-1.498-3.814h-.872l-1.498 3.813h.871l.327-.899h1.471zm5.555-2.914h-.818v1.525H66.54V27.58h-.817v3.813h.817V29.84h1.634v1.552h.817V27.58zm2.338 0h-.816v3.813h.817V27.58zm4.356 0h-1.689c-.38 0-.692.12-.937.36-.245.239-.37.538-.37.893 0 .152.027.294.07.43.05.136.104.24.17.316.06.076.125.147.207.213.076.065.13.108.163.125.027.01.055.027.07.032l-.816 1.444h.871l.736-1.334h.708v1.334h.817V27.58zm-2.179 1.253a.505.505 0 01.518-.518h.844v1.008h-.844a.523.523 0 01-.37-.142.465.465 0 01-.148-.348z" fill="#46466E"/><path d="M2.99.94H.5v17.987h2.49v-6.673c0-1.13.281-2.02.843-2.647.562-.627 1.33-.953 2.283-.953.818 0 1.502.3 2.051.878.55.59.83 1.33.83 2.22v7.187H11.5v-7.187c0-1.656-.452-2.96-1.355-3.939-.904-.978-2.088-1.467-3.528-1.467-.416 0-.83.05-1.234.163a5.199 5.199 0 00-1.013.376 5.139 5.139 0 00-.757.464c-.232.176-.39.301-.464.377-.073.075-.134.125-.158.163V.939z" fill="#F0145A"/><path d="M17.067.94H14.5v17.972h2.567V.939zm15.144 12.708l.129-1.284c0-1.72-.565-3.158-1.72-4.313-1.156-1.155-2.594-1.72-4.314-1.72-1.72 0-3.21.616-4.442 1.848-1.232 1.233-1.848 2.696-1.848 4.442 0 1.797.642 3.338 1.9 4.622 1.258 1.283 2.773 1.925 4.518 1.925.668 0 1.284-.102 1.9-.282.617-.206 1.13-.41 1.49-.616a8.46 8.46 0 001.103-.77c.334-.283.565-.488.668-.617.103-.128.18-.205.231-.282l-1.669-1.67-.385.489c-.257.308-.693.616-1.31.95a4.3 4.3 0 01-2.028.488c-1 0-1.848-.309-2.567-.95-.719-.642-1.155-1.387-1.284-2.26h9.628zm-5.905-5.135c.95 0 1.72.283 2.362.822.616.565 1.001 1.258 1.155 2.13h-7.137c.23-.872.642-1.565 1.284-2.13.616-.54 1.412-.822 2.336-.822zm17.879 9.654c0 1.13-.334 2.054-1.027 2.773-.667.693-1.514 1.053-2.567 1.053a4.83 4.83 0 01-1.361-.206 4.042 4.042 0 01-1.053-.462 5.954 5.954 0 01-.796-.59c-.23-.232-.385-.386-.462-.463-.077-.077-.128-.154-.18-.205l-1.668 1.669.205.257c.128.18.36.41.668.667.308.231.667.488 1.078.745.41.23.924.436 1.566.616a7.4 7.4 0 002.003.282c1.746 0 3.184-.59 4.39-1.771 1.181-1.207 1.772-2.645 1.772-4.39V6.587h-2.568V7.87l-.436-.385c-.283-.257-.72-.513-1.335-.77a5.085 5.085 0 00-1.952-.385c-1.566 0-2.9.59-4.056 1.797-1.156 1.207-1.72 2.645-1.72 4.365 0 1.72.564 3.158 1.72 4.365 1.155 1.206 2.49 1.797 4.056 1.797.437 0 .848-.052 1.284-.154a8.989 8.989 0 001.027-.385c.283-.129.54-.283.77-.462.232-.18.411-.309.463-.36l.18-.18v1.053zm-6.932-5.674c0-1.079.334-1.977 1.027-2.722.693-.744 1.515-1.13 2.44-1.13.924 0 1.745.386 2.438 1.13.668.745 1.027 1.643 1.027 2.722 0 1.078-.36 1.977-1.027 2.721-.693.745-1.514 1.13-2.439 1.13-.924 0-1.746-.385-2.439-1.13-.693-.744-1.027-1.643-1.027-2.721zm22.901 6.419v-7.96c0-1.31-.488-2.413-1.438-3.286-.95-.899-2.182-1.335-3.697-1.335-.59 0-1.18.077-1.746.23-.565.18-1.027.36-1.36.566a6.35 6.35 0 00-.976.719 7.728 7.728 0 00-.59.539c-.078.103-.155.18-.206.257l1.669 1.668.334-.436c.205-.282.564-.54 1.104-.822.539-.282 1.13-.41 1.771-.41.745 0 1.36.23 1.849.667.488.437.719 1.001.719 1.643l-4.494.77c-1.104.18-2.002.617-2.618 1.31-.642.693-.976 1.54-.976 2.542 0 .95.41 1.771 1.232 2.49.848.745 1.875 1.104 3.133 1.104.436 0 .847-.051 1.258-.18.436-.102.77-.23 1.053-.359.282-.128.539-.282.77-.462.23-.18.385-.308.488-.36.077-.076.128-.153.154-.18v1.285h2.567zm-5.905-2.054c-.668 0-1.207-.155-1.592-.463-.41-.308-.59-.667-.59-1.078 0-.436.128-.822.41-1.104a2.06 2.06 0 011.13-.565l3.98-.642v.257c0 1.155-.283 2.028-.873 2.67-.59.616-1.412.925-2.465.925zM65.82.94h-2.567v17.972h2.567V.939zM77.495 8l-.154-.18a5.536 5.536 0 00-.488-.41c-.231-.18-.488-.335-.77-.514-.283-.154-.668-.283-1.13-.411a6.667 6.667 0 00-1.438-.154c-1.258 0-2.285.36-3.107 1.078-.847.745-1.258 1.566-1.258 2.516 0 .693.154 1.258.462 1.772.309.488.694.847 1.181 1.053.463.23.976.462 1.515.641.54.18 1.027.334 1.515.463.462.154.847.333 1.156.564.308.232.462.54.462.9 0 .461-.18.846-.514 1.129-.334.256-.847.41-1.54.41-.565 0-1.13-.154-1.67-.41-.538-.283-.872-.514-1.052-.693a9.95 9.95 0 01-.36-.437l-1.668 1.669.18.231c.128.154.308.334.564.54.283.23.59.436.925.641.359.206.821.385 1.36.54.54.153 1.13.23 1.72.23 1.361 0 2.491-.385 3.338-1.13.848-.744 1.284-1.668 1.284-2.72 0-.694-.154-1.285-.462-1.747-.308-.488-.693-.847-1.181-1.078a8.959 8.959 0 00-1.515-.642c-.54-.18-1.027-.36-1.515-.462a3.467 3.467 0 01-1.155-.565 1.085 1.085 0 01-.462-.899c0-.333.154-.642.488-.898.308-.257.744-.385 1.309-.385.41 0 .822.102 1.207.282.41.18.693.334.821.462l.283.283 1.669-1.67z" fill="#323264"/></svg>