<svg width="430" height="501" fill="none" xmlns="http://www.w3.org/2000/svg"><mask id="mask0_40_2260" style="mask-type:alpha" maskUnits="userSpaceOnUse" x="0" y="0" width="430" height="501"><path fill="#C4C4C4" d="M0 .013h430v500H0z"/></mask><g mask="url(#mask0_40_2260)"><path fill-rule="evenodd" clip-rule="evenodd" d="M46.795 687.474H0S187.848 109.297 207.75 48.061C217.062 19.411 243.757.013 273.877.013h83.657c25.228 0 46.283 10.656 59.374 28.663 13.082 18.008 16.793 41.05 9.165 64.557-7.639 23.506-14.854 45.696-21.459 66.027-8.918 27.451-33.624 46.367-62.189 47.906 0 0-.148-.049 39.875-123.234 3.534-10.871 2.244-21.512-3.308-29.143-5.541-7.63-14.892-12.146-27.265-12.146h-71.786c-14.096 0-26.587 9.077-30.948 22.484L46.795 687.474z" fill="#F0145A"/><path fill-rule="evenodd" clip-rule="evenodd" d="M342.416 207.167h-94.318l41.558-126.393 47.017.278-27.301 83.355 46.877.028-13.833 42.732z" fill="url(#paint0_linear_40_2260)"/><path transform="rotate(17.888 128.473 290.276)" fill="url(#paint1_linear_40_2260)" d="M128.473 290.276h44.551V510.88h-44.551z"/></g><defs><linearGradient id="paint0_linear_40_2260" x1="248.091" y1="182.958" x2="353.01" y2="237.797" gradientUnits="userSpaceOnUse"><stop stop-color="#F0145A"/><stop offset="1" stop-color="#693264"/></linearGradient><linearGradient id="paint1_linear_40_2260" x1="150.748" y1="290.276" x2="150.748" y2="510.88" gradientUnits="userSpaceOnUse"><stop offset=".167" stop-color="#323264" stop-opacity="0"/><stop offset="1" stop-color="#323264"/></linearGradient></defs></svg>